<?xml version="1.0" encoding="UTF-8"?><svg id="Layer_1" xmlns="http://www.w3.org/2000/svg" viewBox="0 0 1000 1000"><defs><style>.cls-1{fill:#1c243f;stroke-width:0px;}</style></defs><path class="cls-1" d="m656.16,669.72l-24.58-14.18,24.56,14.19,49.5,28.57-49.49-28.58Zm-142.52-82.26l93.37,53.9-93.37-53.91h0Z"/><polygon class="cls-1" points="803.91 698.3 705.65 755.03 513.64 865.88 513.64 809.16 656.52 726.67 705.65 698.3 656.16 669.72 631.59 655.54 631.57 655.54 607.02 641.36 607.01 641.36 513.64 587.45 513.64 530.73 656.14 612.99 680.7 627.18 705.28 641.36 803.91 698.3"/><polygon class="cls-1" points="486.35 530.73 486.35 587.46 450.88 607.94 400.1 637.24 386.46 645.12 372.81 653.01 294.35 698.3 372.81 743.61 372.81 800.34 352.24 788.46 196.09 698.3 372.81 596.28 386.46 588.4 400.1 580.53 401.75 579.58 450.88 551.2 486.35 530.73"/><polygon class="cls-1" points="607.02 698.08 513.64 752.01 500 759.88 486.35 767.76 450.5 788.46 486.35 809.17 486.35 865.88 401.37 816.82 400.1 816.09 400.1 760.83 401.36 760.09 486.35 711.02 500 703.15 513.64 695.27 557.89 669.72 582.46 683.9 607.02 698.08"/><polygon class="cls-1" points="631.59 655.54 656.16 669.72 656.15 669.73 631.59 655.54"/><polygon class="cls-1" points="607.01 641.36 513.64 587.46 513.64 587.45 607.01 641.36"/><polygon class="cls-1" points="705.65 698.3 656.15 669.73 631.59 655.54 656.16 669.72 705.65 698.3"/><path class="cls-1" d="m570.94,276.36v28.37s.01-28.37.01-28.37v-57.15s-.01,57.15-.01,57.15Zm.02,164.55v-107.81s0,107.81,0,107.81h0Z"/><polygon class="cls-1" points="521.82 134.12 620.08 190.84 812.08 301.7 762.96 330.06 620.08 247.57 570.95 219.21 570.94 276.36 570.95 304.73 570.96 304.74 570.95 333.09 570.96 333.1 570.95 440.92 521.83 469.27 521.83 304.74 521.83 276.38 521.82 248 521.82 134.12"/><polygon class="cls-1" points="535.48 492.91 584.61 464.55 620.08 485.03 670.84 514.35 684.49 522.23 698.14 530.1 776.6 575.41 776.61 484.8 825.74 456.44 825.73 480.19 825.73 660.5 649.02 558.47 635.37 550.59 621.73 542.71 620.08 541.75 570.94 513.39 535.48 492.91"/><polygon class="cls-1" points="620.08 304.73 713.46 358.64 727.1 366.52 740.75 374.4 776.6 395.1 776.61 353.69 825.73 325.33 825.73 423.46 825.73 424.92 777.87 452.56 776.61 451.83 691.62 402.77 677.98 394.88 664.33 387.01 620.08 361.46 620.08 333.1 620.08 304.73"/><polygon class="cls-1" points="570.95 304.73 570.94 276.36 570.96 276.36 570.95 304.73"/><polygon class="cls-1" points="570.96 333.1 570.96 440.91 570.95 440.92 570.96 333.1"/><polygon class="cls-1" points="570.95 219.21 570.96 276.36 570.95 304.73 570.94 276.36 570.95 219.21"/><path class="cls-1" d="m272.89,546.84l24.57-14.19-24.57,14.18-49.49,28.58,49.5-28.57Zm142.5-82.29l-93.36,53.91,93.37-53.9h0Z"/><polygon class="cls-1" points="174.26 660.5 174.27 547.04 174.26 325.33 223.39 353.7 223.39 518.68 223.39 575.41 272.89 546.84 297.46 532.65 297.46 532.64 322.02 518.46 322.03 518.45 415.4 464.55 464.52 492.91 322.03 575.18 297.46 589.36 272.89 603.56 174.26 660.5"/><polygon class="cls-1" points="478.16 469.27 429.04 440.91 429.03 399.95 429.05 341.33 429.04 325.57 429.04 309.81 429.04 219.21 350.57 264.51 301.45 236.14 322.02 224.27 478.17 134.12 478.17 338.17 478.17 353.93 478.16 369.68 478.16 371.59 478.17 428.32 478.16 469.27"/><polygon class="cls-1" points="272.9 490.1 272.89 382.27 272.89 366.52 272.89 350.76 272.89 309.36 237.03 330.06 187.91 301.7 272.89 252.63 274.16 251.9 322.02 279.53 322.02 280.99 322.03 379.13 322.02 394.88 322.02 410.64 322.02 461.74 297.46 475.92 272.9 490.1"/><polygon class="cls-1" points="297.46 532.65 272.89 546.84 272.89 546.82 297.46 532.65"/><polygon class="cls-1" points="322.03 518.45 415.39 464.55 415.4 464.55 322.03 518.45"/><polygon class="cls-1" points="223.39 575.41 272.89 546.82 297.46 532.65 272.89 546.84 223.39 575.41"/></svg>