<?xml version="1.0" encoding="UTF-8"?><svg id="Layer_1" xmlns="http://www.w3.org/2000/svg" viewBox="0 0 975.46 1000"><defs><style>.cls-1{letter-spacing:0em;}.cls-2{font-family:MyriadPro-Regular, 'Myriad Pro';font-size:210px;}.cls-2,.cls-3{fill:#fff;}.cls-4{letter-spacing:0em;}.cls-3{stroke-width:0px;}</style></defs><path class="cls-3" d="m495.48,543.72v-42.41h8.42l13.33,27.14,13.27-27.14h8.54v42.41h-6.12v-34.66l-15.75,31.63-15.81-31.63v34.66h-5.88Z"/><path class="cls-3" d="m571.4,544.38c-3.03,0-5.89-.56-8.57-1.67-2.69-1.11-5.04-2.67-7.06-4.67-2.02-2-3.59-4.32-4.7-6.97-1.11-2.65-1.67-5.5-1.67-8.57s.55-5.93,1.67-8.57c1.11-2.64,2.68-4.97,4.7-6.97,2.02-2,4.37-3.55,7.06-4.67,2.69-1.11,5.54-1.67,8.57-1.67s6.01.56,8.69,1.67c2.69,1.11,5.04,2.67,7.06,4.67,2.02,2,3.59,4.32,4.73,6.97,1.13,2.65,1.7,5.5,1.7,8.57s-.57,5.93-1.7,8.57c-1.13,2.65-2.71,4.97-4.73,6.97-2.02,2-4.37,3.56-7.06,4.67-2.69,1.11-5.58,1.67-8.69,1.67Zm.12-5.88c2.18,0,4.21-.4,6.09-1.21,1.88-.81,3.53-1.93,4.97-3.36,1.43-1.43,2.54-3.13,3.33-5.09.79-1.96,1.18-4.07,1.18-6.33s-.4-4.37-1.21-6.33c-.81-1.96-1.92-3.66-3.33-5.09-1.41-1.43-3.06-2.55-4.94-3.36-1.88-.81-3.93-1.21-6.15-1.21s-4.22.4-6.12,1.21c-1.9.81-3.55,1.93-4.97,3.36-1.41,1.43-2.51,3.13-3.3,5.09-.79,1.96-1.18,4.07-1.18,6.33s.39,4.37,1.18,6.33c.79,1.96,1.89,3.66,3.3,5.09,1.41,1.43,3.08,2.56,5,3.36,1.92.81,3.97,1.21,6.15,1.21Z"/><path class="cls-3" d="m603.99,543.72v-42.41h6.36v36.78h24.36v5.63h-30.72Z"/><path class="cls-3" d="m644.83,543.72v-42.41h31.27v5.57h-24.9v12.72h16.24v5.39h-16.24v13.15h25.15v5.57h-31.51Z"/><path class="cls-3" d="m704.21,544.38c-3.15,0-6.07-.56-8.76-1.67-2.69-1.11-5.05-2.67-7.09-4.67-2.04-2-3.62-4.32-4.73-6.97-1.11-2.65-1.67-5.5-1.67-8.57s.55-5.99,1.67-8.63c1.11-2.65,2.69-4.96,4.73-6.94,2.04-1.98,4.41-3.52,7.12-4.64,2.71-1.11,5.61-1.67,8.73-1.67,2.22,0,4.39.29,6.51.88,2.12.59,4.08,1.42,5.88,2.51,1.8,1.09,3.38,2.42,4.76,4l-4.3,4.3c-1.58-1.9-3.49-3.34-5.76-4.33-2.26-.99-4.63-1.48-7.09-1.48-2.26,0-4.34.4-6.24,1.21-1.9.81-3.57,1.94-5,3.39-1.43,1.45-2.54,3.15-3.33,5.09s-1.18,4.04-1.18,6.3.39,4.36,1.18,6.3,1.9,3.64,3.33,5.09c1.43,1.45,3.13,2.59,5.09,3.39,1.96.81,4.05,1.21,6.27,1.21,2.46,0,4.81-.5,7.03-1.51,2.22-1.01,4.1-2.4,5.63-4.18l4.18,4.24c-1.37,1.5-2.96,2.8-4.76,3.91-1.8,1.11-3.74,1.96-5.82,2.54-2.08.58-4.21.88-6.39.88Z"/><path class="cls-3" d="m748.38,544.38c-3.76,0-6.99-.77-9.69-2.3-2.71-1.53-4.79-3.71-6.24-6.51-1.45-2.81-2.18-6.13-2.18-9.97v-24.3h6.36v24.3c0,2.63.48,4.9,1.45,6.82.97,1.92,2.33,3.41,4.09,4.48,1.76,1.07,3.83,1.61,6.21,1.61s4.38-.53,6.12-1.61c1.74-1.07,3.09-2.56,4.06-4.48.97-1.92,1.45-4.19,1.45-6.82v-24.3h6.36v24.3c0,3.84-.74,7.16-2.21,9.97-1.47,2.81-3.56,4.98-6.24,6.51s-5.87,2.3-9.54,2.3Z"/><path class="cls-3" d="m777.95,543.72v-42.41h6.36v36.78h24.36v5.63h-30.72Z"/><path class="cls-3" d="m815.76,543.72l17.51-42.41h7.45l17.39,42.41h-6.91l-4.91-12.42h-19.03l-4.91,12.42h-6.6Zm13.63-17.69h14.84l-7.39-18.66-7.45,18.66Z"/><path class="cls-3" d="m866.17,543.72v-42.41h19.15c2.83,0,5.3.53,7.42,1.58,2.12,1.05,3.78,2.51,4.97,4.39,1.19,1.88,1.79,4.09,1.79,6.63,0,2.75-.8,5.14-2.39,7.18-1.6,2.04-3.69,3.48-6.27,4.33l9.39,18.3h-7.09l-8.73-17.39h-11.88v17.39h-6.36Zm6.36-22.72h12.3c2.5,0,4.5-.64,6-1.91,1.49-1.27,2.24-3,2.24-5.18s-.75-3.85-2.24-5.12c-1.49-1.27-3.49-1.91-6-1.91h-12.3v14.12Z"/><path class="cls-3" d="m495.26,604.6v-46.5h16.34c3.54,0,6.79.58,9.73,1.73,2.94,1.15,5.52,2.78,7.74,4.88,2.21,2.1,3.94,4.57,5.18,7.41,1.24,2.83,1.86,5.91,1.86,9.23s-.62,6.46-1.86,9.27c-1.24,2.81-2.96,5.27-5.15,7.37-2.19,2.1-4.77,3.73-7.74,4.88-2.97,1.15-6.22,1.73-9.77,1.73h-16.34Zm6.98-6.24h9.5c2.44,0,4.69-.42,6.78-1.26,2.08-.84,3.91-2.04,5.48-3.59,1.57-1.55,2.79-3.35,3.65-5.41.86-2.06,1.3-4.29,1.3-6.68s-.44-4.69-1.33-6.78c-.89-2.08-2.1-3.89-3.65-5.41-1.55-1.53-3.37-2.72-5.45-3.59-2.08-.86-4.36-1.3-6.84-1.3h-9.43v34.01Z"/><path class="cls-3" d="m562.42,604.6v-18.47l-18.73-28.03h8.1l14.28,21.92,14.35-21.92h7.71l-18.73,28.23v18.27h-6.98Z"/><path class="cls-3" d="m602.08,604.6v-46.5h6.78l25.91,34.55v-34.55h6.58v46.5h-6.18l-26.51-35.54v35.54h-6.58Z"/><path class="cls-3" d="m655.49,604.6l19.2-46.5h8.17l19.07,46.5h-7.57l-5.38-13.62h-20.86l-5.38,13.62h-7.24Zm14.95-19.4h16.28l-8.1-20.46-8.17,20.46Z"/><path class="cls-3" d="m716.08,604.6v-46.5h9.23l14.62,29.76,14.55-29.76h9.37v46.5h-6.71v-38l-17.27,34.68-17.34-34.68v38h-6.44Z"/><path class="cls-3" d="m782.58,604.6v-46.5h6.98v46.5h-6.98Z"/><path class="cls-3" d="m830.67,605.33c-3.45,0-6.65-.61-9.6-1.83-2.95-1.22-5.54-2.92-7.77-5.12-2.24-2.19-3.96-4.74-5.18-7.64-1.22-2.9-1.83-6.03-1.83-9.4s.61-6.56,1.83-9.47c1.22-2.9,2.94-5.44,5.18-7.61,2.24-2.17,4.84-3.86,7.81-5.08,2.97-1.22,6.16-1.83,9.57-1.83,2.44,0,4.82.32,7.14.96,2.33.64,4.47,1.56,6.44,2.76,1.97,1.2,3.71,2.66,5.21,4.38l-4.72,4.72c-1.73-2.08-3.83-3.66-6.31-4.75-2.48-1.08-5.07-1.63-7.77-1.63-2.48,0-4.76.44-6.84,1.33-2.08.89-3.91,2.13-5.48,3.72-1.57,1.59-2.79,3.45-3.65,5.58-.86,2.13-1.3,4.43-1.3,6.91s.43,4.78,1.3,6.91c.86,2.13,2.08,3.99,3.65,5.58,1.57,1.59,3.43,2.83,5.58,3.72,2.15.89,4.44,1.33,6.88,1.33,2.7,0,5.27-.55,7.71-1.66,2.44-1.11,4.49-2.63,6.18-4.58l4.58,4.65c-1.51,1.64-3.24,3.07-5.22,4.29-1.97,1.22-4.1,2.15-6.38,2.79-2.28.64-4.62.96-7.01.96Z"/><path class="cls-3" d="m881.83,605.27c-3.72,0-7.31-.72-10.76-2.16-3.45-1.44-6.51-3.51-9.17-6.21l4.25-4.92c2.52,2.48,5.1,4.32,7.74,5.51,2.63,1.2,5.41,1.79,8.34,1.79,2.21,0,4.16-.33,5.85-1,1.68-.66,3-1.58,3.95-2.76.95-1.17,1.43-2.51,1.43-4.02,0-2.08-.73-3.69-2.19-4.82-1.46-1.13-3.88-1.96-7.24-2.49l-7.71-1.33c-4.3-.71-7.5-2.06-9.6-4.05-2.1-1.99-3.16-4.65-3.16-7.97,0-2.66.71-5,2.13-7.04,1.42-2.04,3.42-3.61,6.01-4.72,2.59-1.11,5.59-1.66,9-1.66s6.68.55,9.93,1.66c3.26,1.11,6.19,2.66,8.8,4.65l-3.85,5.38c-5.01-3.81-10.08-5.71-15.21-5.71-2.04,0-3.82.29-5.35.86-1.53.58-2.7,1.38-3.52,2.42-.82,1.04-1.23,2.27-1.23,3.69,0,1.82.64,3.23,1.93,4.25,1.28,1.02,3.39,1.77,6.31,2.26l7.57,1.2c4.92.8,8.53,2.24,10.83,4.32,2.3,2.08,3.45,4.94,3.45,8.57,0,2.84-.76,5.34-2.29,7.51-1.53,2.17-3.7,3.84-6.51,5.02-2.81,1.17-6.06,1.76-9.73,1.76Z"/><polygon class="cls-3" points="585.24 459.4 524.02 459.4 524.02 368.49 495.49 368.49 495.49 484.61 585.24 484.61 585.24 459.4"/><rect class="cls-3" x="597.84" y="368.49" width="28.53" height="116.13"/><polygon class="cls-3" points="768.38 484.61 768.38 368.49 732.38 368.49 703.68 423.23 674.98 368.49 638.98 368.49 638.98 484.61 665.19 484.61 665.19 405.15 703.35 476.32 741.51 405.48 741.51 484.61 768.38 484.61"/><path class="cls-3" d="m820.69,368.49l-47.61,116.13h29.69l10.78-28.04h45.29l10.62,28.04h30.86l-46.95-116.13h-32.68Zm1.49,65.36l14.27-37.16,13.93,37.16h-28.2Z"/><path class="cls-3" d="m331.89,578.06l-13.25-7.64,13.24,7.65,26.68,15.4-26.67-15.4Zm-76.81-44.34l50.32,29.05-50.32-29.06h0Z"/><polygon class="cls-3" points="411.52 593.47 358.56 624.04 255.08 683.79 255.08 653.21 332.08 608.75 358.56 593.47 331.89 578.06 318.65 570.42 318.64 570.42 305.41 562.77 305.4 562.77 255.08 533.72 255.08 503.15 331.88 547.49 345.12 555.13 358.36 562.77 411.52 593.47"/><polygon class="cls-3" points="240.37 503.15 240.37 533.72 221.25 544.76 193.89 560.56 186.53 564.8 179.18 569.05 136.89 593.47 179.18 617.88 179.18 648.46 168.09 642.06 83.93 593.47 179.18 538.48 186.53 534.23 193.89 529.99 194.77 529.48 221.25 514.18 240.37 503.15"/><polygon class="cls-3" points="305.41 593.35 255.08 622.41 247.72 626.65 240.37 630.9 221.05 642.06 240.37 653.22 240.37 683.79 194.57 657.34 193.89 656.95 193.89 627.16 194.56 626.77 240.37 600.32 247.72 596.08 255.08 591.83 278.93 578.06 292.17 585.7 305.41 593.35"/><polygon class="cls-3" points="318.65 570.42 331.89 578.06 331.88 578.07 318.65 570.42"/><polygon class="cls-3" points="305.4 562.77 255.08 533.72 255.08 533.72 305.4 562.77"/><polygon class="cls-3" points="358.56 593.47 331.88 578.07 318.65 570.42 331.89 578.06 358.56 593.47"/><path class="cls-3" d="m285.96,366.05v15.29s0-15.29,0-15.29v-30.8s0,30.8,0,30.8Zm0,88.69v-58.1s0,58.11,0,58.11h0Z"/><polygon class="cls-3" points="259.49 289.39 312.44 319.96 415.93 379.71 389.45 395 312.44 350.54 285.97 335.25 285.96 366.05 285.97 381.34 285.97 381.35 285.97 396.63 285.97 396.64 285.97 454.74 259.49 470.03 259.49 381.35 259.49 366.06 259.49 350.77 259.49 289.39"/><polygon class="cls-3" points="266.85 482.77 293.33 467.48 312.44 478.52 339.8 494.32 347.16 498.57 354.52 502.81 396.81 527.23 396.81 478.4 423.29 463.11 423.28 475.91 423.28 573.09 328.04 518.1 320.68 513.85 313.33 509.6 312.44 509.09 285.96 493.81 266.85 482.77"/><polygon class="cls-3" points="312.44 381.34 362.77 410.4 370.13 414.65 377.48 418.89 396.81 430.05 396.81 407.73 423.28 392.45 423.28 445.34 423.28 446.12 397.49 461.02 396.81 460.63 351 434.18 343.65 429.93 336.29 425.69 312.44 411.92 312.44 396.63 312.44 381.34"/><polygon class="cls-3" points="285.97 381.34 285.96 366.05 285.97 366.05 285.97 381.34"/><polygon class="cls-3" points="285.97 396.64 285.97 454.74 285.97 454.74 285.97 396.64"/><polygon class="cls-3" points="285.97 335.25 285.97 366.05 285.97 381.34 285.96 366.05 285.97 335.25"/><path class="cls-3" d="m125.32,511.83l13.24-7.65-13.24,7.64-26.67,15.4,26.68-15.4Zm76.8-44.35l-50.32,29.05,50.32-29.05h0Z"/><polygon class="cls-3" points="72.17 573.09 72.17 511.94 72.17 392.45 98.64 407.74 98.64 496.65 98.64 527.23 125.32 511.83 138.56 504.18 138.57 504.18 151.8 496.54 151.8 496.53 202.13 467.48 228.6 482.77 151.8 527.11 138.57 534.75 125.32 542.4 72.17 573.09"/><polygon class="cls-3" points="235.96 470.03 209.48 454.74 209.48 432.66 209.48 401.07 209.48 392.57 209.48 384.08 209.48 335.25 167.19 359.66 140.71 344.38 151.8 337.98 235.96 289.39 235.96 399.37 235.96 407.86 235.96 416.35 235.96 417.38 235.96 447.95 235.96 470.03"/><polygon class="cls-3" points="125.32 481.25 125.32 423.14 125.32 414.65 125.32 406.15 125.32 383.84 105.99 394.99 79.52 379.71 125.32 353.27 126 352.87 151.8 367.76 151.8 368.55 151.8 421.44 151.8 429.93 151.8 438.43 151.8 465.96 138.56 473.61 125.32 481.25"/><polygon class="cls-3" points="138.56 504.18 125.32 511.83 125.32 511.82 138.56 504.18"/><polygon class="cls-3" points="151.8 496.53 202.12 467.48 202.13 467.48 151.8 496.53"/><polygon class="cls-3" points="98.64 527.23 125.32 511.82 138.56 504.18 125.32 511.83 98.64 527.23"/><text class="cls-2" transform="translate(-950.84 101.82)"><tspan x="0" y="0">just </tspan><tspan class="cls-1" x="363.92" y="0">r</tspan><tspan x="433.43" y="0">ig</tspan><tspan class="cls-4" x="599.96" y="0">h</tspan><tspan x="715.67" y="0">t</tspan></text></svg>